<svg width="2520" height="139" viewBox="0 0 2520 139" fill="none" xmlns="http://www.w3.org/2000/svg">
<path d="M2066.98 47.1917H2069.19C2069.36 47.1917 2069.53 47.1917 2069.69 47.1917C2069.9 47.1496 2070.09 47.1496 2070.26 47.1917C2070.47 47.276 2070.64 47.3181 2070.77 47.3181C2070.94 47.276 2071.11 47.297 2071.27 47.3813C2071.57 47.5076 2071.84 47.7182 2072.1 48.0131C2072.39 48.2658 2072.64 48.5817 2072.85 48.9608C2073.11 49.2977 2073.34 49.6557 2073.55 50.0348C2073.76 50.4139 2073.95 50.7298 2074.12 50.9825C2075.04 52.4566 2075.97 53.9098 2076.9 55.3418C2077.82 56.7317 2078.75 58.1638 2079.68 59.638C2080.01 60.1434 2080.33 60.6488 2080.62 61.1543C2080.92 61.6176 2081.23 62.1019 2081.57 62.6074C2081.74 62.818 2081.89 63.0496 2082.01 63.3023C2082.18 63.5551 2082.44 63.7235 2082.77 63.8078C2083.11 63.892 2083.36 63.8499 2083.53 63.6814C2083.74 63.5129 2083.89 63.3445 2083.97 63.176C2084.35 62.7127 2084.69 62.2283 2084.98 61.7229C2085.32 61.2174 2085.66 60.712 2085.99 60.2066C2086.92 58.8588 2087.83 57.532 2088.71 56.2263C2089.64 54.8785 2090.54 53.5307 2091.43 52.1829C2091.72 51.7196 2092.02 51.2773 2092.31 50.8561C2092.61 50.4349 2092.9 49.9927 2093.2 49.5294C2093.41 49.2345 2093.6 48.9608 2093.77 48.708C2093.93 48.4132 2094.12 48.1394 2094.33 47.8867C2094.8 47.4234 2095.37 47.1917 2096.04 47.1917C2096.76 47.1917 2097.56 47.1917 2098.44 47.1917C2098.82 47.1917 2099.2 47.2128 2099.58 47.2549C2100 47.297 2100.25 47.4655 2100.34 47.7604C2100.5 47.971 2100.48 48.2447 2100.27 48.5817C2100.1 48.9186 2099.98 49.1503 2099.89 49.2766C2099.51 49.9084 2099.09 50.5402 2098.63 51.172C2098.21 51.7617 2097.79 52.3724 2097.37 53.0042C2096.4 54.4784 2095.41 55.9315 2094.4 57.3635C2093.43 58.7956 2092.44 60.2487 2091.43 61.7229C2091.09 62.2283 2090.75 62.7337 2090.42 63.2392C2090.08 63.7446 2089.74 64.25 2089.41 64.7555C2089.07 65.2609 2088.71 65.7663 2088.33 66.2717C2087.95 66.7772 2087.62 67.3247 2087.32 67.9144C2087.24 68.0829 2087.13 68.2935 2087.01 68.5462C2086.88 68.7568 2086.86 69.0306 2086.94 69.3675C2087.03 69.8308 2087.19 70.2309 2087.45 70.5679C2087.7 70.8627 2087.95 71.1786 2088.21 71.5156C2088.33 71.7262 2088.44 71.9368 2088.52 72.1474C2088.65 72.3158 2088.8 72.5054 2088.96 72.716C2089.17 73.0108 2089.39 73.3057 2089.6 73.6005C2089.81 73.8953 2090.02 74.1902 2090.23 74.485C2091.53 76.4225 2092.82 78.3389 2094.08 80.2343C2095.39 82.1296 2096.69 84.046 2098 85.9835C2098.46 86.6574 2098.93 87.3313 2099.39 88.0053C2099.85 88.637 2100.31 89.3109 2100.78 90.027C2100.86 90.1112 2100.99 90.3429 2101.16 90.7219C2101.37 91.101 2101.41 91.3958 2101.28 91.6064C2101.2 91.9013 2100.95 92.0698 2100.53 92.1119C2100.1 92.154 2099.7 92.1751 2099.33 92.1751C2098.36 92.1751 2097.47 92.1961 2096.67 92.2382C2095.91 92.2382 2095.26 92.0066 2094.71 91.5433C2094.5 91.3327 2094.31 91.101 2094.14 90.8483C2094.02 90.5956 2093.89 90.3639 2093.77 90.1533C2093.43 89.69 2093.11 89.2056 2092.82 88.7002C2092.52 88.1948 2092.21 87.6894 2091.87 87.1839C2090.9 85.7098 2089.93 84.2566 2088.96 82.8246C2088 81.3925 2087.05 79.9394 2086.12 78.4653C2085.78 77.9177 2085.43 77.3702 2085.05 76.8226C2084.71 76.2751 2084.35 75.7486 2083.97 75.2431C2083.85 75.0747 2083.68 74.9062 2083.47 74.7377C2083.3 74.5271 2083.05 74.4639 2082.71 74.5482C2082.41 74.6324 2082.18 74.8009 2082.01 75.0536C2081.85 75.2642 2081.68 75.4748 2081.51 75.6854C2081.17 76.1487 2080.86 76.612 2080.56 77.0753C2080.27 77.5386 2079.95 78.0019 2079.61 78.4653C2078.39 80.3185 2077.15 82.1717 2075.89 84.025C2074.62 85.8361 2073.38 87.6683 2072.16 89.5215C2071.82 89.9849 2071.51 90.4692 2071.21 90.9747C2070.92 91.4801 2070.47 91.8381 2069.88 92.0487C2069.55 92.1751 2069.1 92.2382 2068.56 92.2382C2068.01 92.1961 2067.5 92.1751 2067.04 92.1751C2066.7 92.1751 2066.35 92.1751 2065.97 92.1751C2065.59 92.1751 2065.29 92.0908 2065.08 91.9223C2064.79 91.7539 2064.66 91.5011 2064.7 91.1642C2064.79 90.8272 2064.89 90.5535 2065.02 90.3429C2065.31 89.8796 2065.61 89.4584 2065.9 89.0793C2066.2 88.6581 2066.49 88.2369 2066.79 87.8157C2066.96 87.563 2067.1 87.3103 2067.23 87.0576C2067.36 86.8049 2067.53 86.5732 2067.74 86.3626C2068.79 84.8884 2069.8 83.3932 2070.77 81.8769C2071.78 80.3185 2072.81 78.8022 2073.86 77.328C2074.12 76.9911 2074.35 76.6331 2074.56 76.254C2074.81 75.8749 2075.06 75.4958 2075.32 75.1168C2075.65 74.5692 2076.01 74.0427 2076.39 73.5373C2076.77 72.9898 2077.15 72.4422 2077.53 71.8947C2077.78 71.4735 2078.05 71.0733 2078.35 70.6943C2078.64 70.3152 2078.86 69.8519 2078.98 69.3043C2079.07 68.9674 2079.02 68.6936 2078.86 68.483C2078.73 68.2303 2078.62 67.9986 2078.54 67.788C2078.2 67.2826 2077.87 66.7982 2077.53 66.3349C2077.23 65.8716 2076.92 65.3872 2076.58 64.8818C2075.23 62.8601 2073.89 60.8805 2072.54 58.943C2071.23 57.0055 2069.9 55.0259 2068.56 53.0042C2068.14 52.3724 2067.69 51.7617 2067.23 51.172C2066.81 50.5402 2066.41 49.9084 2066.03 49.2766C2065.95 49.1082 2065.82 48.8555 2065.65 48.5185C2065.48 48.1815 2065.48 47.9078 2065.65 47.6972C2065.78 47.4866 2066.03 47.3392 2066.41 47.2549C2066.49 47.2128 2066.58 47.2128 2066.66 47.2549C2066.79 47.2549 2066.89 47.2339 2066.98 47.1917Z" fill="#FFD1BB"/>
<path d="M2485.22 47.1917H2487.43C2487.6 47.1917 2487.77 47.1917 2487.94 47.1917C2488.15 47.1496 2488.34 47.1496 2488.51 47.1917C2488.72 47.276 2488.88 47.3181 2489.01 47.3181C2489.18 47.276 2489.35 47.297 2489.52 47.3813C2489.81 47.5076 2490.08 47.7182 2490.34 48.0131C2490.63 48.2658 2490.88 48.5817 2491.1 48.9608C2491.35 49.2977 2491.58 49.6557 2491.79 50.0348C2492 50.4139 2492.19 50.7298 2492.36 50.9825C2493.29 52.4566 2494.21 53.9098 2495.14 55.3418C2496.07 56.7317 2496.99 58.1638 2497.92 59.638C2498.26 60.1434 2498.57 60.6488 2498.87 61.1543C2499.16 61.6176 2499.48 62.1019 2499.81 62.6074C2499.98 62.818 2500.13 63.0496 2500.26 63.3023C2500.42 63.5551 2500.68 63.7235 2501.01 63.8078C2501.35 63.892 2501.6 63.8499 2501.77 63.6814C2501.98 63.5129 2502.13 63.3445 2502.21 63.176C2502.59 62.7127 2502.93 62.2283 2503.23 61.7229C2503.56 61.2174 2503.9 60.712 2504.24 60.2066C2505.16 58.8588 2506.07 57.532 2506.95 56.2263C2507.88 54.8785 2508.79 53.5307 2509.67 52.1829C2509.96 51.7196 2510.26 51.2773 2510.55 50.8561C2510.85 50.4349 2511.14 49.9927 2511.44 49.5294C2511.65 49.2345 2511.84 48.9608 2512.01 48.708C2512.18 48.4132 2512.37 48.1394 2512.58 47.8867C2513.04 47.4234 2513.61 47.1917 2514.28 47.1917C2515 47.1917 2515.8 47.1917 2516.68 47.1917C2517.06 47.1917 2517.44 47.2128 2517.82 47.2549C2518.24 47.297 2518.49 47.4655 2518.58 47.7604C2518.75 47.971 2518.73 48.2447 2518.52 48.5817C2518.35 48.9186 2518.22 49.1503 2518.14 49.2766C2517.76 49.9084 2517.34 50.5402 2516.87 51.172C2516.45 51.7617 2516.03 52.3724 2515.61 53.0042C2514.64 54.4784 2513.65 55.9315 2512.64 57.3635C2511.67 58.7956 2510.68 60.2487 2509.67 61.7229C2509.33 62.2283 2509 62.7337 2508.66 63.2392C2508.32 63.7446 2507.99 64.25 2507.65 64.7555C2507.31 65.2609 2506.95 65.7663 2506.57 66.2717C2506.2 66.7772 2505.86 67.3247 2505.56 67.9144C2505.48 68.0829 2505.37 68.2935 2505.25 68.5462C2505.12 68.7568 2505.1 69.0306 2505.18 69.3675C2505.27 69.8308 2505.44 70.2309 2505.69 70.5679C2505.94 70.8627 2506.2 71.1786 2506.45 71.5156C2506.57 71.7262 2506.68 71.9368 2506.76 72.1474C2506.89 72.3158 2507.04 72.5054 2507.21 72.716C2507.42 73.0108 2507.63 73.3057 2507.84 73.6005C2508.05 73.8953 2508.26 74.1902 2508.47 74.485C2509.78 76.4225 2511.06 78.3389 2512.32 80.2343C2513.63 82.1296 2514.93 84.046 2516.24 85.9835C2516.7 86.6574 2517.17 87.3313 2517.63 88.0053C2518.09 88.637 2518.56 89.3109 2519.02 90.027C2519.1 90.1112 2519.23 90.3429 2519.4 90.7219C2519.61 91.101 2519.65 91.3958 2519.53 91.6064C2519.44 91.9013 2519.19 92.0698 2518.77 92.1119C2518.35 92.154 2517.95 92.1751 2517.57 92.1751C2516.6 92.1751 2515.71 92.1961 2514.91 92.2382C2514.16 92.2382 2513.5 92.0066 2512.96 91.5433C2512.74 91.3327 2512.56 91.101 2512.39 90.8483C2512.26 90.5956 2512.13 90.3639 2512.01 90.1533C2511.67 89.69 2511.35 89.2056 2511.06 88.7002C2510.77 88.1948 2510.45 87.6894 2510.11 87.1839C2509.14 85.7098 2508.17 84.2566 2507.21 82.8246C2506.24 81.3925 2505.29 79.9394 2504.36 78.4653C2504.03 77.9177 2503.67 77.3702 2503.29 76.8226C2502.95 76.2751 2502.59 75.7486 2502.21 75.2431C2502.09 75.0747 2501.92 74.9062 2501.71 74.7377C2501.54 74.5271 2501.29 74.4639 2500.95 74.5482C2500.66 74.6324 2500.42 74.8009 2500.26 75.0536C2500.09 75.2642 2499.92 75.4748 2499.75 75.6854C2499.41 76.1487 2499.1 76.612 2498.8 77.0753C2498.51 77.5386 2498.19 78.0019 2497.86 78.4653C2496.63 80.3185 2495.39 82.1717 2494.13 84.025C2492.86 85.8361 2491.62 87.6683 2490.4 89.5215C2490.06 89.9849 2489.75 90.4692 2489.45 90.9747C2489.16 91.4801 2488.72 91.8381 2488.13 92.0487C2487.79 92.1751 2487.35 92.2382 2486.8 92.2382C2486.25 92.1961 2485.75 92.1751 2485.28 92.1751C2484.95 92.1751 2484.59 92.1751 2484.21 92.1751C2483.83 92.1751 2483.54 92.0908 2483.32 91.9223C2483.03 91.7539 2482.9 91.5011 2482.95 91.1642C2483.03 90.8272 2483.13 90.5535 2483.26 90.3429C2483.56 89.8796 2483.85 89.4584 2484.15 89.0793C2484.44 88.6581 2484.74 88.2369 2485.03 87.8157C2485.2 87.563 2485.35 87.3103 2485.47 87.0576C2485.6 86.8049 2485.77 86.5732 2485.98 86.3626C2487.03 84.8884 2488.04 83.3932 2489.01 81.8769C2490.02 80.3185 2491.05 78.8022 2492.11 77.328C2492.36 76.9911 2492.59 76.6331 2492.8 76.254C2493.05 75.8749 2493.31 75.4958 2493.56 75.1168C2493.9 74.5692 2494.25 74.0427 2494.63 73.5373C2495.01 72.9898 2495.39 72.4422 2495.77 71.8947C2496.02 71.4735 2496.3 71.0733 2496.59 70.6943C2496.89 70.3152 2497.1 69.8519 2497.22 69.3043C2497.31 68.9674 2497.27 68.6936 2497.1 68.483C2496.97 68.2303 2496.87 67.9986 2496.78 67.788C2496.44 67.2826 2496.11 66.7982 2495.77 66.3349C2495.48 65.8716 2495.16 65.3872 2494.82 64.8818C2493.48 62.8601 2492.13 60.8805 2490.78 58.943C2489.47 57.0055 2488.15 55.0259 2486.8 53.0042C2486.38 52.3724 2485.94 51.7617 2485.47 51.172C2485.05 50.5402 2484.65 49.9084 2484.27 49.2766C2484.19 49.1082 2484.06 48.8555 2483.89 48.5185C2483.72 48.1815 2483.72 47.9078 2483.89 47.6972C2484.02 47.4866 2484.27 47.3392 2484.65 47.2549C2484.74 47.2128 2484.82 47.2128 2484.9 47.2549C2485.03 47.2549 2485.14 47.2339 2485.22 47.1917Z" fill="#FFD1BB"/>
<path d="M1464.25 47.1917H1466.46C1466.63 47.1917 1466.8 47.1917 1466.97 47.1917C1467.18 47.1496 1467.37 47.1496 1467.54 47.1917C1467.75 47.276 1467.92 47.3181 1468.04 47.3181C1468.21 47.276 1468.38 47.297 1468.55 47.3813C1468.84 47.5076 1469.12 47.7182 1469.37 48.0131C1469.66 48.2658 1469.92 48.5817 1470.13 48.9608C1470.38 49.2977 1470.61 49.6557 1470.82 50.0348C1471.03 50.4139 1471.22 50.7298 1471.39 50.9825C1472.32 52.4566 1473.24 53.9098 1474.17 55.3418C1475.1 56.7317 1476.02 58.1638 1476.95 59.638C1477.29 60.1434 1477.6 60.6488 1477.9 61.1543C1478.19 61.6176 1478.51 62.1019 1478.85 62.6074C1479.01 62.818 1479.16 63.0496 1479.29 63.3023C1479.46 63.5551 1479.71 63.7235 1480.05 63.8078C1480.38 63.892 1480.64 63.8499 1480.8 63.6814C1481.01 63.5129 1481.16 63.3445 1481.25 63.176C1481.63 62.7127 1481.96 62.2283 1482.26 61.7229C1482.59 61.2174 1482.93 60.712 1483.27 60.2066C1484.19 58.8588 1485.1 57.532 1485.98 56.2263C1486.91 54.8785 1487.82 53.5307 1488.7 52.1829C1489 51.7196 1489.29 51.2773 1489.59 50.8561C1489.88 50.4349 1490.18 49.9927 1490.47 49.5294C1490.68 49.2345 1490.87 48.9608 1491.04 48.708C1491.21 48.4132 1491.4 48.1394 1491.61 47.8867C1492.07 47.4234 1492.64 47.1917 1493.31 47.1917C1494.03 47.1917 1494.83 47.1917 1495.71 47.1917C1496.09 47.1917 1496.47 47.2128 1496.85 47.2549C1497.27 47.297 1497.53 47.4655 1497.61 47.7604C1497.78 47.971 1497.76 48.2447 1497.55 48.5817C1497.38 48.9186 1497.25 49.1503 1497.17 49.2766C1496.79 49.9084 1496.37 50.5402 1495.9 51.172C1495.48 51.7617 1495.06 52.3724 1494.64 53.0042C1493.67 54.4784 1492.68 55.9315 1491.67 57.3635C1490.7 58.7956 1489.71 60.2487 1488.7 61.7229C1488.36 62.2283 1488.03 62.7337 1487.69 63.2392C1487.35 63.7446 1487.02 64.25 1486.68 64.7555C1486.34 65.2609 1485.98 65.7663 1485.61 66.2717C1485.23 66.7772 1484.89 67.3247 1484.59 67.9144C1484.51 68.0829 1484.41 68.2935 1484.28 68.5462C1484.15 68.7568 1484.13 69.0306 1484.22 69.3675C1484.3 69.8308 1484.47 70.2309 1484.72 70.5679C1484.97 70.8627 1485.23 71.1786 1485.48 71.5156C1485.61 71.7262 1485.71 71.9368 1485.8 72.1474C1485.92 72.3158 1486.07 72.5054 1486.24 72.716C1486.45 73.0108 1486.66 73.3057 1486.87 73.6005C1487.08 73.8953 1487.29 74.1902 1487.5 74.485C1488.81 76.4225 1490.09 78.3389 1491.35 80.2343C1492.66 82.1296 1493.97 84.046 1495.27 85.9835C1495.74 86.6574 1496.2 87.3313 1496.66 88.0053C1497.13 88.637 1497.59 89.3109 1498.05 90.027C1498.14 90.1112 1498.26 90.3429 1498.43 90.7219C1498.64 91.101 1498.68 91.3958 1498.56 91.6064C1498.47 91.9013 1498.22 92.0698 1497.8 92.1119C1497.38 92.154 1496.98 92.1751 1496.6 92.1751C1495.63 92.1751 1494.75 92.1961 1493.95 92.2382C1493.19 92.2382 1492.53 92.0066 1491.99 91.5433C1491.78 91.3327 1491.59 91.101 1491.42 90.8483C1491.29 90.5956 1491.17 90.3639 1491.04 90.1533C1490.7 89.69 1490.39 89.2056 1490.09 88.7002C1489.8 88.1948 1489.48 87.6894 1489.14 87.1839C1488.17 85.7098 1487.21 84.2566 1486.24 82.8246C1485.27 81.3925 1484.32 79.9394 1483.39 78.4653C1483.06 77.9177 1482.7 77.3702 1482.32 76.8226C1481.98 76.2751 1481.63 75.7486 1481.25 75.2431C1481.12 75.0747 1480.95 74.9062 1480.74 74.7377C1480.57 74.5271 1480.32 74.4639 1479.98 74.5482C1479.69 74.6324 1479.46 74.8009 1479.29 75.0536C1479.12 75.2642 1478.95 75.4748 1478.78 75.6854C1478.45 76.1487 1478.13 76.612 1477.83 77.0753C1477.54 77.5386 1477.22 78.0019 1476.89 78.4653C1475.67 80.3185 1474.42 82.1717 1473.16 84.025C1471.9 85.8361 1470.65 87.6683 1469.43 89.5215C1469.09 89.9849 1468.78 90.4692 1468.48 90.9747C1468.19 91.4801 1467.75 91.8381 1467.16 92.0487C1466.82 92.1751 1466.38 92.2382 1465.83 92.2382C1465.28 92.1961 1464.78 92.1751 1464.31 92.1751C1463.98 92.1751 1463.62 92.1751 1463.24 92.1751C1462.86 92.1751 1462.57 92.0908 1462.36 91.9223C1462.06 91.7539 1461.93 91.5011 1461.98 91.1642C1462.06 90.8272 1462.17 90.5535 1462.29 90.3429C1462.59 89.8796 1462.88 89.4584 1463.18 89.0793C1463.47 88.6581 1463.77 88.2369 1464.06 87.8157C1464.23 87.563 1464.38 87.3103 1464.5 87.0576C1464.63 86.8049 1464.8 86.5732 1465.01 86.3626C1466.06 84.8884 1467.07 83.3932 1468.04 81.8769C1469.05 80.3185 1470.08 78.8022 1471.14 77.328C1471.39 76.9911 1471.62 76.6331 1471.83 76.254C1472.09 75.8749 1472.34 75.4958 1472.59 75.1168C1472.93 74.5692 1473.29 74.0427 1473.66 73.5373C1474.04 72.9898 1474.42 72.4422 1474.8 71.8947C1475.05 71.4735 1475.33 71.0733 1475.62 70.6943C1475.92 70.3152 1476.13 69.8519 1476.26 69.3043C1476.34 68.9674 1476.3 68.6936 1476.13 68.483C1476 68.2303 1475.9 67.9986 1475.81 67.788C1475.48 67.2826 1475.14 66.7982 1474.8 66.3349C1474.51 65.8716 1474.19 65.3872 1473.85 64.8818C1472.51 62.8601 1471.16 60.8805 1469.81 58.943C1468.51 57.0055 1467.18 55.0259 1465.83 53.0042C1465.41 52.3724 1464.97 51.7617 1464.5 51.172C1464.08 50.5402 1463.68 49.9084 1463.3 49.2766C1463.22 49.1082 1463.09 48.8555 1462.92 48.5185C1462.76 48.1815 1462.76 47.9078 1462.92 47.6972C1463.05 47.4866 1463.3 47.3392 1463.68 47.2549C1463.77 47.2128 1463.85 47.2128 1463.94 47.2549C1464.06 47.2549 1464.17 47.2339 1464.25 47.1917Z" fill="#FFD1BB"/>
<path d="M943.657 47.1917H945.869C946.037 47.1917 946.206 47.1917 946.374 47.1917C946.585 47.1496 946.774 47.1496 946.943 47.1917C947.153 47.276 947.322 47.3181 947.448 47.3181C947.617 47.276 947.785 47.297 947.953 47.3813C948.248 47.5076 948.522 47.7182 948.775 48.0131C949.07 48.2658 949.322 48.5817 949.533 48.9608C949.786 49.2977 950.017 49.6557 950.228 50.0348C950.439 50.4139 950.628 50.7298 950.797 50.9825C951.723 52.4566 952.65 53.9098 953.576 55.3418C954.503 56.7317 955.43 58.1638 956.356 59.638C956.693 60.1434 957.009 60.6488 957.304 61.1543C957.599 61.6176 957.915 62.1019 958.252 62.6074C958.42 62.818 958.568 63.0496 958.694 63.3023C958.862 63.5551 959.115 63.7235 959.452 63.8078C959.789 63.892 960.042 63.8499 960.21 63.6814C960.421 63.5129 960.568 63.3445 960.652 63.176C961.032 62.7127 961.368 62.2283 961.663 61.7229C962 61.2174 962.337 60.712 962.674 60.2066C963.601 58.8588 964.506 57.532 965.391 56.2263C966.317 54.8785 967.223 53.5307 968.108 52.1829C968.402 51.7196 968.697 51.2773 968.992 50.8561C969.287 50.4349 969.582 49.9927 969.877 49.5294C970.087 49.2345 970.277 48.9608 970.445 48.708C970.614 48.4132 970.803 48.1394 971.014 47.8867C971.477 47.4234 972.046 47.1917 972.72 47.1917C973.436 47.1917 974.236 47.1917 975.12 47.1917C975.499 47.1917 975.879 47.2128 976.258 47.2549C976.679 47.297 976.931 47.4655 977.016 47.7604C977.184 47.971 977.163 48.2447 976.953 48.5817C976.784 48.9186 976.658 49.1503 976.573 49.2766C976.194 49.9084 975.773 50.5402 975.31 51.172C974.889 51.7617 974.468 52.3724 974.046 53.0042C973.078 54.4784 972.088 55.9315 971.077 57.3635C970.108 58.7956 969.118 60.2487 968.108 61.7229C967.771 62.2283 967.434 62.7337 967.097 63.2392C966.76 63.7446 966.423 64.25 966.086 64.7555C965.749 65.2609 965.391 65.7663 965.012 66.2717C964.633 66.7772 964.296 67.3247 964.001 67.9144C963.917 68.0829 963.811 68.2935 963.685 68.5462C963.559 68.7568 963.538 69.0306 963.622 69.3675C963.706 69.8308 963.875 70.2309 964.127 70.5679C964.38 70.8627 964.633 71.1786 964.885 71.5156C965.012 71.7262 965.117 71.9368 965.201 72.1474C965.328 72.3158 965.475 72.5054 965.644 72.716C965.854 73.0108 966.065 73.3057 966.275 73.6005C966.486 73.8953 966.697 74.1902 966.907 74.485C968.213 76.4225 969.497 78.3389 970.761 80.2343C972.067 82.1296 973.372 84.046 974.678 85.9835C975.141 86.6574 975.605 87.3313 976.068 88.0053C976.531 88.637 976.995 89.3109 977.458 90.027C977.542 90.1112 977.669 90.3429 977.837 90.7219C978.048 91.101 978.09 91.3958 977.963 91.6064C977.879 91.9013 977.626 92.0698 977.205 92.1119C976.784 92.154 976.384 92.1751 976.005 92.1751C975.036 92.1751 974.152 92.1961 973.351 92.2382C972.593 92.2382 971.94 92.0066 971.393 91.5433C971.182 91.3327 970.993 91.101 970.824 90.8483C970.698 90.5956 970.572 90.3639 970.445 90.1533C970.108 89.69 969.792 89.2056 969.497 88.7002C969.203 88.1948 968.887 87.6894 968.55 87.1839C967.581 85.7098 966.612 84.2566 965.644 82.8246C964.675 81.3925 963.727 79.9394 962.801 78.4653C962.464 77.9177 962.106 77.3702 961.726 76.8226C961.39 76.2751 961.032 75.7486 960.652 75.2431C960.526 75.0747 960.358 74.9062 960.147 74.7377C959.979 74.5271 959.726 74.4639 959.389 74.5482C959.094 74.6324 958.862 74.8009 958.694 75.0536C958.525 75.2642 958.357 75.4748 958.188 75.6854C957.852 76.1487 957.536 76.612 957.241 77.0753C956.946 77.5386 956.63 78.0019 956.293 78.4653C955.072 80.3185 953.829 82.1717 952.566 84.025C951.302 85.8361 950.059 87.6683 948.838 89.5215C948.501 89.9849 948.185 90.4692 947.89 90.9747C947.595 91.4801 947.153 91.8381 946.564 92.0487C946.227 92.1751 945.784 92.2382 945.237 92.2382C944.689 92.1961 944.184 92.1751 943.721 92.1751C943.384 92.1751 943.026 92.1751 942.646 92.1751C942.267 92.1751 941.973 92.0908 941.762 91.9223C941.467 91.7539 941.341 91.5011 941.383 91.1642C941.467 90.8272 941.572 90.5535 941.699 90.3429C941.994 89.8796 942.288 89.4584 942.583 89.0793C942.878 88.6581 943.173 88.2369 943.468 87.8157C943.636 87.563 943.784 87.3103 943.91 87.0576C944.036 86.8049 944.205 86.5732 944.415 86.3626C945.468 84.8884 946.479 83.3932 947.448 81.8769C948.459 80.3185 949.491 78.8022 950.544 77.328C950.797 76.9911 951.028 76.6331 951.239 76.254C951.492 75.8749 951.744 75.4958 951.997 75.1168C952.334 74.5692 952.692 74.0427 953.071 73.5373C953.45 72.9898 953.829 72.4422 954.208 71.8947C954.461 71.4735 954.735 71.0733 955.03 70.6943C955.324 70.3152 955.535 69.8519 955.661 69.3043C955.746 68.9674 955.703 68.6936 955.535 68.483C955.409 68.2303 955.303 67.9986 955.219 67.788C954.882 67.2826 954.545 66.7982 954.208 66.3349C953.913 65.8716 953.597 65.3872 953.261 64.8818C951.913 62.8601 950.565 60.8805 949.217 58.943C947.911 57.0055 946.585 55.0259 945.237 53.0042C944.816 52.3724 944.373 51.7617 943.91 51.172C943.489 50.5402 943.089 49.9084 942.71 49.2766C942.625 49.1082 942.499 48.8555 942.331 48.5185C942.162 48.1815 942.162 47.9078 942.331 47.6972C942.457 47.4866 942.71 47.3392 943.089 47.2549C943.173 47.2128 943.257 47.2128 943.341 47.2549C943.468 47.2549 943.573 47.2339 943.657 47.1917Z" fill="#FFD1BB"/>
<path d="M1641.15 27.8656C1641.15 28.8218 1641.15 29.71 1641.15 30.5983C1641.15 56.6851 1641.14 82.7719 1641.14 108.859C1641.14 110.086 1641.13 110.086 1639.93 110.087C1634.76 110.091 1629.59 110.098 1624.42 110.099C1623.22 110.099 1623.22 110.089 1623.06 108.95C1623.05 108.875 1623 108.805 1622.92 108.649C1622.64 108.76 1622.36 108.866 1622.08 108.978C1613.58 112.468 1605.1 112.527 1596.81 108.447C1589.88 105.039 1585.7 99.193 1583.15 92.1129C1581.56 87.7155 1580.84 83.1599 1580.75 78.4828C1580.64 73.1933 1581.12 67.9972 1582.77 62.9436C1586.46 51.5929 1594.2 44.8986 1606.05 42.8715C1611.32 41.9688 1616.64 42.2857 1621.94 42.2357C1622.74 42.2281 1622.99 42.0481 1622.99 41.221C1622.97 37.0603 1623.03 32.8993 1623.05 28.7384C1623.05 28.1665 1623.11 27.7939 1623.85 27.7969C1629.44 27.8198 1635.04 27.8093 1640.63 27.8116C1640.76 27.8116 1640.9 27.8394 1641.15 27.8656ZM1623.08 74.5645C1623.07 74.5645 1623.06 74.5645 1623.06 74.5645C1623.06 68.8394 1623.05 63.1142 1623.07 57.3891C1623.07 56.7907 1622.94 56.5287 1622.27 56.5695C1618.96 56.7718 1615.65 56.8453 1612.35 57.1368C1606.04 57.6944 1601.67 60.9207 1599.43 66.8438C1597.95 70.7538 1597.66 74.8358 1597.88 78.9693C1598.04 82.0808 1598.5 85.1356 1599.8 88.0098C1601.33 91.3766 1603.77 93.7808 1607.39 94.7547C1612.49 96.1255 1617.4 95.4843 1622.12 93.1396C1622.86 92.7724 1623.09 92.2835 1623.09 91.4884C1623.06 85.8472 1623.08 80.2058 1623.08 74.5645Z" fill="white"/>
<path d="M1671.76 81.0855C1672.92 88.7982 1677.53 94.6418 1685.65 95.3533C1695.49 96.2156 1704.68 94.109 1713.35 89.53C1713.64 89.3774 1713.94 89.2339 1714.36 89.0168C1714.4 89.4442 1714.45 89.7337 1714.45 90.0231C1714.46 94.8268 1714.44 99.6305 1714.47 104.434C1714.48 105.217 1714.21 105.617 1713.48 105.945C1706.78 108.954 1699.75 110.723 1692.44 111.289C1685.29 111.842 1678.28 111.112 1671.65 108.231C1662.99 104.47 1657.3 97.9504 1654.6 89.0178C1651.29 78.0659 1652.29 67.3565 1657.35 57.0957C1660.01 51.6792 1663.99 47.3639 1669.35 44.4244C1672.99 42.4323 1676.9 41.2821 1681.01 40.774C1686.47 40.1001 1691.84 40.4536 1697.08 42.1596C1705.15 44.7916 1710.53 50.2044 1713.41 58.1061C1714.8 61.9212 1715.42 65.8814 1715.48 69.932C1715.52 73.252 1715.57 76.572 1715.61 79.892C1715.63 81.0441 1715.58 81.0906 1714.46 81.0905C1700.58 81.0898 1686.7 81.0874 1672.82 81.0855C1672.49 81.0854 1672.16 81.0855 1671.76 81.0855ZM1684.82 66.5275C1688.81 66.5275 1692.79 66.5203 1696.78 66.5356C1697.36 66.5378 1697.71 66.4411 1697.58 65.7476C1696.96 62.2207 1695.34 59.322 1692.17 57.4687C1688.33 55.2226 1684.25 55.316 1680.22 56.7408C1676.08 58.2061 1673.75 61.4638 1672.37 65.4759C1672.03 66.4629 1672.08 66.5289 1673.11 66.529C1677.02 66.5292 1680.92 66.529 1684.82 66.5275Z" fill="white"/>
<path d="M1964.19 108.638C1962.64 109.107 1961.09 109.588 1959.54 110.041C1955.6 111.19 1951.59 111.807 1947.48 111.595C1944.36 111.434 1941.28 111.001 1938.31 109.964C1931.68 107.645 1927.56 102.988 1925.56 96.3723C1924.29 92.1252 1924.05 87.7501 1924.04 83.3576C1924.02 69.9791 1924.03 56.6005 1924 43.222C1924 42.4648 1924.22 42.1939 1925 42.1975C1930.43 42.2226 1935.85 42.2307 1941.27 42.1915C1942.23 42.1846 1942.23 42.6824 1942.22 43.3533C1942.21 50.5034 1942.21 57.6535 1942.19 64.8035C1942.17 70.4168 1942.09 76.0303 1942.14 81.6431C1942.15 83.7568 1942.28 85.8932 1942.62 87.9762C1943.37 92.5575 1945.82 94.9447 1950.42 95.618C1954.89 96.2708 1959.21 95.7198 1963.31 93.7353C1964.08 93.3635 1964.35 92.9263 1964.35 92.0763C1964.32 75.9886 1964.33 59.9008 1964.33 43.8131C1964.33 43.5896 1964.36 43.3628 1964.33 43.1433C1964.22 42.3854 1964.58 42.2028 1965.29 42.2063C1970.75 42.2332 1976.2 42.2329 1981.65 42.2168C1982.29 42.2149 1982.61 42.4021 1982.54 43.0721C1982.52 43.2377 1982.53 43.407 1982.53 43.5745C1982.53 65.2763 1982.53 86.978 1982.53 108.68C1982.53 110.092 1982.53 110.088 1981.08 110.088C1976.1 110.089 1971.13 110.094 1966.16 110.094C1964.61 110.094 1964.61 110.088 1964.19 108.638Z" fill="white"/>
<path d="M1729.99 76.1608C1729.99 65.2975 1729.99 54.4343 1729.99 43.571C1729.99 42.235 1729.99 42.2242 1731.34 42.223C1736.51 42.2184 1741.67 42.2266 1746.84 42.2152C1747.54 42.2137 1748.12 42.2019 1748.11 43.1749C1748.11 43.7702 1748.59 43.6119 1749 43.5006C1751.92 42.7005 1754.81 41.7673 1757.77 41.1597C1762.98 40.0907 1768.18 40.4694 1773.26 41.9806C1780.87 44.2432 1785.46 49.417 1787.24 56.9981C1787.92 59.9139 1788.39 62.9487 1788.42 65.9343C1788.55 79.4212 1788.48 92.91 1788.49 106.398C1788.49 107.376 1788.48 108.353 1788.5 109.33C1788.51 109.86 1788.31 110.079 1787.76 110.078C1782.22 110.069 1776.69 110.07 1771.15 110.087C1770.43 110.089 1770.43 109.664 1770.43 109.151C1770.44 105.716 1770.44 102.282 1770.44 98.8467C1770.44 89.0446 1770.48 79.2423 1770.41 69.4407C1770.4 67.4184 1770.16 65.3648 1769.74 63.3855C1769 59.9032 1766.83 57.647 1763.26 56.9055C1758.34 55.8835 1753.61 56.429 1749.08 58.6423C1748.37 58.9884 1748.14 59.4383 1748.14 60.208C1748.17 74.0314 1748.17 87.8548 1748.18 101.678C1748.18 104.136 1748.15 106.593 1748.18 109.05C1748.19 109.793 1747.96 110.086 1747.17 110.083C1741.83 110.062 1736.49 110.087 1731.16 110.088C1729.99 110.088 1729.98 110.073 1729.98 108.918C1729.98 97.9989 1729.98 87.0798 1729.98 76.1608H1729.99Z" fill="white"/>
<path d="M1908.68 54.2268C1908.68 56.6006 1908.69 58.9744 1908.67 61.3481C1908.67 62.4067 1908.59 62.4397 1907.63 62.0758C1901.73 59.8452 1895.69 58.1106 1889.44 57.2151C1885.62 56.6677 1881.77 56.4918 1878.03 57.8278C1877.45 58.0337 1876.88 58.3037 1876.37 58.6393C1874.08 60.1549 1874.07 62.7102 1876.4 64.1593C1877.32 64.7297 1878.34 65.2368 1879.38 65.4928C1883.08 66.402 1886.81 67.2152 1890.54 68.018C1894.59 68.8887 1898.58 69.8727 1902.26 71.8517C1908.12 75.0066 1911.34 79.937 1911.82 86.4834C1912.26 92.4011 1910.76 97.8628 1906.89 102.502C1903.63 106.412 1899.26 108.563 1894.43 109.915C1891.12 110.844 1887.73 111.253 1884.3 111.458C1875.33 111.994 1866.91 109.925 1858.82 106.265C1858.02 105.904 1857.71 105.432 1857.72 104.542C1857.76 100.185 1857.74 95.8286 1857.74 91.472C1857.74 90.9986 1857.71 90.5242 1857.67 90.0519C1857.59 89.1394 1857.7 89.069 1858.56 89.3598C1861.78 90.4422 1864.97 91.6153 1868.23 92.5503C1872.97 93.9087 1877.83 94.7062 1882.76 94.7768C1884.88 94.8071 1887.02 94.5704 1889.13 94.3124C1890.33 94.165 1891.42 93.5854 1892.28 92.6635C1893.71 91.1218 1893.69 89.0323 1892.08 87.6904C1891.28 87.0245 1890.32 86.4076 1889.33 86.1439C1885.83 85.2131 1882.3 84.4052 1878.77 83.6243C1874.09 82.59 1869.49 81.3451 1865.33 78.8957C1858.8 75.0558 1855.9 69.3629 1856.55 61.8486C1857.15 54.9788 1860.3 49.6062 1866.02 45.7365C1869.35 43.4889 1873.06 42.1432 1876.99 41.3965C1886.63 39.5644 1895.93 40.8103 1904.94 44.5475C1905.93 44.9559 1906.89 45.4174 1907.88 45.8137C1908.49 46.0592 1908.71 46.4609 1908.7 47.1055C1908.67 49.479 1908.69 51.853 1908.69 54.2268C1908.68 54.2268 1908.68 54.2268 1908.68 54.2268Z" fill="white"/>
<path d="M1843.1 92.7225C1843.1 93.1799 1843.1 93.4778 1843.1 93.7758C1843.09 97.5456 1843.09 101.315 1843.08 105.085C1843.08 105.977 1843.04 106.87 1843.09 107.758C1843.13 108.562 1842.84 108.956 1842.03 109.172C1837.18 110.466 1832.27 111.399 1827.25 111.503C1822.98 111.592 1818.73 111.213 1814.73 109.409C1810.48 107.488 1807.66 104.286 1805.99 100.007C1804.64 96.5253 1804.09 92.8757 1804.03 89.1811C1803.9 81.1707 1803.86 73.1582 1803.84 65.1464C1803.81 53.0829 1803.84 41.0194 1803.84 28.9558C1803.84 27.8127 1803.84 27.8097 1804.99 27.8095C1810.3 27.8083 1815.6 27.8083 1820.91 27.8095C1822.03 27.8097 1822.04 27.8129 1822.04 28.8977C1822.04 33.0027 1822.06 37.1078 1822.02 41.2124C1822.01 42.0284 1822.28 42.2464 1823.08 42.2419C1829.38 42.2069 1835.67 42.2156 1841.96 42.2112C1843.1 42.2104 1843.1 42.2112 1843.1 43.3096C1843.11 47.9449 1843.1 52.5803 1843.12 57.2156C1843.12 57.963 1842.92 58.1329 1842.14 58.059C1839.01 57.7635 1835.87 57.502 1832.73 57.3514C1829.51 57.1966 1826.28 57.2001 1823.05 57.1011C1822.3 57.0782 1822.02 57.2805 1822.02 58.079C1822.05 67.9364 1822.04 77.7939 1822.05 87.6514C1822.05 88.3467 1822.12 89.0454 1822.2 89.7367C1822.58 92.7712 1824.52 94.4943 1827.6 94.6865C1832.35 94.9818 1836.94 94.0523 1841.52 93.063C1841.98 92.9638 1842.44 92.8645 1843.1 92.7225Z" fill="white"/>
<path d="M2183.47 74.2816C2183.47 68.9382 2183.45 63.5948 2183.47 58.2515C2183.53 33.0699 2209.56 26.6825 2224.7 35.3688C2230.13 38.48 2233.48 39.1712 2239.44 35.7547C2256.01 26.2425 2279.94 33.7339 2280.73 56.5747C2281.16 69.0233 2281.09 81.5006 2280.83 93.9568C2280.72 99.8158 2276.61 103.516 2271.5 103.041C2265.72 102.504 2263.69 98.6109 2263.65 93.3062C2263.59 84.6234 2263.69 75.9381 2263.5 67.2585C2263.43 63.9466 2263.72 60.062 2262.13 57.4948C2260.27 54.4825 2256.73 51.0647 2253.58 50.6988C2250.46 50.3361 2246.06 52.8079 2243.83 55.4161C2241.8 57.798 2241.36 62.0035 2241.22 65.4462C2240.87 74.1155 2241.15 82.8086 2241.04 91.4906C2240.95 99.2362 2237.87 103.237 2232.27 103.195C2226.77 103.153 2223.61 99.0983 2223.4 91.366C2223.21 84.4682 2223.38 77.5607 2223.19 70.6628C2223.09 67.116 2222.78 63.5472 2222.2 60.0477C2221.23 54.1514 2218.13 50.132 2211.66 50.059C2206.19 49.9974 2201.78 54.4587 2201.29 61.1015C2200.81 67.5264 2201.05 74.0039 2200.97 80.4583C2200.92 85.132 2201.15 89.8306 2200.73 94.4727C2200.27 99.7499 2197.49 103.285 2191.71 103.106C2186.18 102.935 2183.83 99.2639 2183.62 94.3144C2183.34 87.6478 2183.55 80.9602 2183.55 74.2817C2183.52 74.2817 2183.49 74.2816 2183.47 74.2816Z" fill="white"/>
<path d="M2363.5 105.562C2341.98 105.16 2326.46 89.0032 2326.71 67.2433C2326.92 47.5249 2344.13 30.6257 2364.07 31.6327C2387.17 32.7989 2400.56 47.5259 2400.8 69.2568C2401.02 89.7543 2384 105.944 2363.5 105.562ZM2363.41 87.2067C2374.14 87.2848 2381.24 79.3547 2381.11 67.4195C2381.01 57.4052 2373.71 49.6586 2364.24 49.5097C2353.28 49.3374 2346.43 56.8487 2346.42 69.0654C2346.41 79.9669 2353.12 87.1317 2363.41 87.2067Z" fill="white"/>
<path d="M2295.4 68.3798C2295.4 60.3731 2295.25 52.3625 2295.45 44.3608C2295.62 37.1924 2298.73 33.8096 2304.65 33.7056C2310.86 33.5962 2314.43 37.0799 2314.53 44.42C2314.75 60.4318 2314.75 76.4504 2314.56 92.4629C2314.47 99.7052 2310.72 103.423 2304.66 103.21C2298.91 103.009 2295.67 99.3333 2295.54 92.403C2295.4 84.3976 2295.51 76.3878 2295.51 68.3798C2295.47 68.3798 2295.44 68.3798 2295.4 68.3798Z" fill="white"/>
<path d="M1374.3 95.1002C1373.09 95.1002 1371.89 95.132 1370.68 95.095C1362.59 94.8472 1355.93 97.6605 1350.96 104.183C1349.46 106.161 1347.93 108.124 1346.42 110.095C1342.51 115.181 1337.53 118.293 1331.04 119.16C1321.61 120.419 1312.19 122.037 1303.7 126.65C1299.21 129.095 1294.98 132.079 1290.8 135.05C1288.17 136.913 1285.47 138.269 1282.23 138.213C1278.87 138.155 1275.51 137.898 1272.14 137.79C1269.84 137.717 1267.37 137.215 1265.25 137.846C1260.76 139.189 1257.37 136.436 1253.56 135.342C1251.99 134.893 1251 131.151 1251.89 128.847C1252.81 126.461 1253.87 124.005 1255.42 122.015C1257.77 119.014 1261.49 118.606 1264.72 119.635C1272.18 122.016 1278.27 119.197 1283.81 114.998C1291.3 109.321 1298.2 102.885 1305.68 97.1996C1312.8 91.785 1320.34 86.9169 1327.7 81.8093C1328.03 81.5815 1328.36 81.3615 1328.69 81.1379C1328.55 80.874 1328.42 80.6101 1328.28 80.3462C1323.76 82.573 1319.24 84.7998 1314.81 86.9817C1314.89 86.6366 1315.06 85.9102 1315.23 85.1838C1312.55 89.8532 1307.51 89.3469 1303.3 90.7725C1300.57 91.6939 1298.14 93.4978 1295.72 94.8343C1295.19 92.9937 1296.72 89.6702 1300.13 86.8859C1302.72 84.7677 1305.48 82.8562 1308.04 80.6101C1303.71 80.5398 1300.38 82.8451 1296.9 85.2214C1296.78 82.7177 1297.61 80.5797 1299.36 79.1405C1301.32 77.5342 1303.69 76.4406 1305.8 75.0037C1306.53 74.5119 1307.48 73.6506 1307.47 72.9701C1307.45 72.1298 1306.73 71.0455 1306 70.5202C1304.27 69.29 1302.34 68.3353 1300.51 67.2596C1298.31 65.9777 1297.14 64.0999 1297.41 61.5285C1297.79 57.9176 1298.38 54.3253 1298.65 50.7079C1298.75 49.3094 1298.54 47.6991 1297.92 46.4708C1296.05 42.8129 1297.01 39.548 1298.46 36.2595C1298.69 36.2625 1298.93 36.2654 1299.17 36.2684C1299.17 37.8145 1298.98 39.3894 1299.21 40.9001C1299.58 43.2873 1300.27 45.6228 1300.73 47.9984C1300.91 48.9238 1300.99 49.9259 1300.84 50.8461C1300.27 54.2585 1299.54 57.6438 1298.98 61.0578C1298.87 61.7365 1299.26 62.4971 1299.42 63.2198C1300.12 62.9901 1301.02 62.9575 1301.5 62.4964C1303.55 60.5451 1305.73 62.2006 1307.83 62.2018C1307.88 62.2018 1308.21 63.6221 1307.92 64.0102C1307.37 64.7438 1306.46 65.2081 1305.72 65.7666C1308.34 70.9631 1316.06 72.2145 1319.93 68.1471C1320.33 67.7287 1320.66 66.5895 1320.43 66.3478C1319.75 65.6359 1318.81 64.8674 1317.9 64.7606C1316.94 64.6474 1315.9 65.3561 1314.87 65.5497C1313.07 65.8854 1311.26 66.1009 1309.45 65.7446C1315.86 61.5337 1322.28 57.3304 1328.68 53.1081C1331.22 51.4357 1332.29 48.9995 1332.06 46.0306C1331.88 43.5573 1331.58 41.0906 1331.26 38.63C1330.8 35.1029 1331.34 33.9169 1334.77 32.8314C1339.67 31.2785 1344.75 30.241 1349.57 28.4828C1352.22 27.5192 1354.85 25.8884 1356.83 23.9102C1359.5 21.2589 1359.45 18.014 1357.2 14.942C1355.66 12.8321 1353.75 10.9889 1351.51 8.46484C1353.26 8.9696 1354.43 9.19722 1355.52 9.63795C1363.43 12.8471 1368.32 18.5178 1369.04 27.1623C1369.41 31.4991 1370.87 35.2349 1373.41 38.6657C1374.52 40.1625 1375.55 41.7199 1376.58 43.2757C1381.67 51.0008 1380.81 57.392 1373.84 63.5185C1372.98 64.2713 1372.1 64.9887 1370.94 65.9604C1373.89 66.6997 1376.51 67.3585 1379.14 68.0173C1379.13 68.3211 1379.13 68.6248 1379.12 68.9286C1378.44 69.1199 1377.78 69.3732 1377.09 69.4921C1373.15 70.1708 1369.21 70.8116 1365.28 71.4762C1353.97 73.3849 1344.19 79.068 1334.79 85.0002C1323.7 91.9904 1313.41 100.222 1302.64 107.731C1295.81 112.499 1288.93 117.271 1281.7 121.385C1277.63 123.704 1272.8 124.708 1268.3 126.273C1266.71 126.823 1265 127.087 1263.51 127.821C1261.22 128.953 1260.84 130.758 1262.31 133.955C1262.73 132.672 1262.83 131.718 1263.31 131.036C1264.12 129.893 1265.03 128.266 1266.16 127.997C1270.61 126.946 1275.17 126.347 1280.22 125.489C1276.57 129.731 1271.21 129.2 1267.04 131.125C1267.08 131.474 1267.13 131.822 1267.18 132.17C1271.49 132.725 1275.79 133.657 1280.1 133.672C1282.15 133.679 1284.67 132.406 1286.18 130.909C1295.39 121.76 1306.12 115.622 1318.94 113.2C1321.46 112.724 1323.93 111.948 1326.39 111.19C1332.33 109.357 1337.14 105.926 1341.06 101.073C1347.99 92.4972 1360.27 89.0298 1370.71 92.5762C1372.02 93.0204 1373.24 93.7341 1374.5 94.3228C1374.43 94.5819 1374.37 94.8411 1374.3 95.1002ZM1342.88 40.9526C1344.27 52.5235 1342.83 62.9006 1337.19 72.5148C1347.32 65.8553 1349.82 52.6196 1342.88 40.9526ZM1357.9 65.4136C1363.01 61.0608 1365.1 55.9979 1364.61 49.8583C1364.22 44.8613 1357.24 36.5373 1352.07 34.9639C1353.76 37.462 1355.36 39.7888 1356.93 42.1407C1361.75 49.3879 1363.87 56.75 1357.81 64.4347C1357.78 64.4825 1357.82 64.5975 1357.9 65.4136ZM1326.12 65.0654C1334.85 62.1227 1338 57.8975 1335.71 52.37C1332.57 56.5316 1329.5 60.5893 1326.12 65.0654ZM1364.64 66.9183C1365.95 66.6416 1367.95 66.8265 1368.62 65.9689C1371.45 62.3727 1372.77 58.1039 1373.14 54.104C1370.48 58.1194 1367.64 62.3982 1364.64 66.9183ZM1260.63 125.141C1258.77 124.519 1257.03 125.151 1255.87 127.201C1255.42 128.002 1255.52 129.116 1255.37 130.087C1255.62 130.109 1255.87 130.132 1256.13 130.154C1257.63 128.481 1259.13 126.808 1260.63 125.141Z" fill="white"/>
<path d="M1229.25 97.6645C1229.25 87.0743 1229.28 76.2593 1229.22 65.4448C1229.21 63.4355 1229.82 62.4577 1231.95 62.5738C1233.81 62.6753 1235.68 62.6831 1237.54 62.5727C1239.8 62.4386 1240.46 63.5103 1240.43 65.6091C1240.36 71.1989 1240.41 76.7905 1240.41 82.3814C1240.41 91.5221 1240.34 100.664 1240.45 109.803C1240.48 112.371 1239.55 113.166 1237.03 113.158C1229.08 113.131 1229.1 113.194 1224.08 106.939C1218.46 99.9497 1212.75 93.0405 1207.19 86.0148C1205 83.249 1203.09 80.2619 1201.12 77.4826C1201.12 78.5369 1201.12 79.8648 1201.12 81.1927C1201.13 90.7771 1201.07 100.362 1201.19 109.945C1201.22 112.41 1200.37 113.208 1197.96 113.144C1188.54 112.895 1190.02 114.505 1189.96 105.124C1189.87 92.168 1189.93 79.2109 1189.94 66.2542C1189.94 62.6769 1190.12 62.9412 1193.71 62.4675C1199.76 61.669 1203.71 63.8915 1207.21 68.8726C1212.25 76.0462 1218.15 82.611 1223.58 89.5192C1225.65 92.1529 1227.42 95.0176 1229.25 97.6645Z" fill="white"/>
<path d="M1153.3 114.38C1143.51 114.136 1135.91 110.882 1129.91 104.112C1122.02 95.1894 1122.18 80.6731 1130.26 71.3458C1140.41 59.6132 1159.98 58.2284 1171.61 68.491C1179.49 75.4442 1182.6 84.1197 1179.89 94.3651C1177.03 105.16 1169.26 110.974 1158.83 113.638C1156.79 114.159 1154.63 114.211 1153.3 114.38ZM1136 87.9665C1136 97.643 1142.74 104.514 1152.27 104.542C1161.68 104.569 1168.87 97.5222 1168.96 88.1754C1169.06 78.5708 1161.73 71.127 1152.25 71.2009C1142.91 71.2736 1136 78.4107 1136 87.9665Z" fill="white"/>
<path d="M1327.41 29.4225C1326.47 29.8525 1325.53 30.2826 1324.6 30.7126C1324.33 30.5855 1324.06 30.4583 1323.79 30.3311C1324.36 28.3067 1324.75 26.2064 1325.54 24.2723C1327.74 18.9131 1327.1 16.1688 1322.18 13.0437C1318.04 10.4193 1313.4 9.12517 1308.5 9.39836C1304.78 9.60538 1302.35 12.0093 1300.76 15.1636C1300.01 16.6402 1299.43 18.3127 1299.26 19.947C1298.63 25.9949 1296.7 31.55 1293.31 36.5677C1290.39 40.9078 1289.83 45.3039 1292.11 50.1297C1294.47 55.1146 1294.87 60.3389 1293.45 65.7113C1292.53 69.1763 1292.08 72.661 1294.4 75.9666C1290.18 72.5806 1287.29 68.4715 1287.46 63.1046C1287.63 57.8431 1286.96 52.9811 1284.4 48.2739C1282.31 44.4292 1282.78 40.297 1284.93 36.537C1287.26 32.4587 1289.94 28.5837 1292.26 24.5002C1294.07 21.3141 1295.56 17.9447 1296.79 14.4378C1292.88 18.7512 1288.47 22.5331 1286.61 28.4048C1285.69 31.3281 1283.71 34.0756 1281.67 36.4413C1279.84 38.5662 1278.99 40.5606 1279.91 43.1809C1281.46 47.5972 1283.13 51.9755 1284.63 56.4085C1285.32 58.4371 1285.73 60.5578 1286.27 62.6367C1285.87 62.8337 1285.47 63.0306 1285.07 63.2276C1282.99 60.2917 1280.5 57.5555 1278.94 54.3665C1277.19 50.8196 1276.25 46.8743 1275.04 43.0759C1274.09 40.1033 1274.56 37.1572 1276.21 34.629C1279.38 29.757 1281.17 24.4303 1282.02 18.762C1282.63 14.6445 1284.96 12.0289 1288.67 10.4943C1290.39 9.78414 1292.11 9.01814 1293.9 8.54825C1299.29 7.1365 1304.27 5.01259 1308.72 1.56429C1311.63 -0.696554 1316.74 -0.487898 1319.36 2.06804C1321.98 4.61765 1325.12 5.80474 1328.48 6.72546C1330.96 7.40565 1333.46 8.02739 1335.91 8.80395C1341.5 10.5742 1342.6 15.736 1338.25 19.7976C1336.04 21.8539 1333.7 23.7625 1331.45 25.773C1330.86 26.2978 1330.39 26.9538 1329.87 27.5482C1329.05 28.172 1328.23 28.7973 1327.41 29.4225Z" fill="white"/>
<path d="M1254.72 99.8403C1258.09 104.656 1262.31 106.443 1267.66 105.249C1270.26 104.669 1272.28 103.334 1272.88 100.565C1273.51 97.6577 1271.86 95.7932 1269.59 94.4791C1267.22 93.106 1264.65 92.058 1262.27 90.7012C1259.35 89.0393 1256.31 87.4742 1253.7 85.3883C1248.25 81.0265 1247.68 73.1418 1252.1 67.7741C1258.38 60.158 1273.48 59.2931 1280.63 66.0619C1282.17 67.5147 1282.59 68.6025 1280.69 70.0515C1279.09 71.2779 1277.64 72.7116 1275.99 74.1718C1275.26 73.4899 1274.7 72.9585 1274.13 72.4295C1271.36 69.8324 1266.43 69.2867 1263.22 71.2194C1260.18 73.0534 1259.58 76.761 1262.29 79.0495C1264.15 80.6175 1266.52 81.574 1268.65 82.8225C1272.53 85.0938 1276.83 86.8804 1280.17 89.77C1285.81 94.6454 1285.65 103.675 1280.47 109.071C1273.66 116.161 1257.57 116.241 1250.6 109.296C1248.86 107.558 1248.27 106.15 1250.47 104.316C1251.94 103.086 1253.14 101.526 1254.72 99.8403Z" fill="white"/>
<path d="M1066.19 87.8282C1066.19 80.3816 1066.25 72.9343 1066.16 65.4887C1066.13 63.3291 1066.85 62.3913 1069.07 62.5288C1071.01 62.6494 1072.97 62.6427 1074.92 62.5306C1077.09 62.4052 1077.93 63.2943 1077.9 65.4715C1077.82 71.2326 1077.88 76.9956 1077.88 82.7579C1077.88 88.4315 1077.88 94.1052 1077.89 99.7788C1077.89 103.514 1077.91 103.532 1081.54 103.542C1085.35 103.553 1089.16 103.623 1092.97 103.517C1095.11 103.458 1096.04 104.19 1096.01 106.41C1095.93 114.163 1096.61 113.002 1089.59 113.06C1082.76 113.116 1075.93 113.016 1069.1 113.101C1066.93 113.128 1066.13 112.381 1066.16 110.168C1066.26 102.722 1066.19 95.2748 1066.19 87.8282Z" fill="white"/>
<path d="M1184.11 32.8177C1184.11 38.4484 1184.11 43.8202 1184.11 49.192C1184.11 50.2569 1184.11 51.3219 1184.11 52.3868C1184.1 54.966 1182.83 56.256 1180.3 56.2566C1176.5 56.2576 1176.49 56.2576 1176.49 52.3891C1176.48 43.3371 1176.57 34.2841 1176.44 25.234C1176.4 22.6439 1177.34 22.0563 1179.81 21.8596C1183.53 21.5639 1185.86 22.9398 1188.04 25.8626C1192.79 32.2342 1197.9 38.3413 1203.18 44.9536C1203.18 43.4761 1203.18 42.3708 1203.18 41.2655C1203.18 35.6746 1203.22 30.0834 1203.16 24.493C1203.15 22.705 1203.81 21.9898 1205.65 21.9313C1210.78 21.7685 1210.78 21.7013 1210.78 26.908C1210.78 35.5162 1210.71 44.1255 1210.83 52.7319C1210.87 55.3048 1210.2 56.2837 1207.42 56.3597C1204.26 56.4464 1202.19 55.4671 1200.26 52.9397C1195.11 46.2123 1189.67 39.7064 1184.11 32.8177Z" fill="white"/>
<path d="M1141.92 32.1831C1141.92 39.4039 1141.79 46.3136 1141.98 53.2145C1142.06 56.3852 1140.27 56.2528 1138.09 56.2935C1135.79 56.3364 1134.24 56.1788 1134.29 53.1187C1134.46 43.8106 1134.41 34.497 1134.31 25.1868C1134.29 22.8366 1134.98 22.0327 1137.46 21.8637C1141.13 21.6133 1143.5 22.84 1145.7 25.8079C1150.55 32.3286 1155.8 38.5485 1161.02 45.0606C1161.02 39.9475 1161.02 34.8605 1161.02 29.7735C1161.02 28.5321 1161.02 27.2906 1161.02 26.0491C1161.03 21.9383 1161.03 22.0747 1165.13 21.9125C1167.75 21.8088 1168.72 22.5786 1168.68 25.3399C1168.53 34.4712 1168.63 43.6066 1168.62 52.7404C1168.61 56.2123 1168.55 56.049 1165 56.3144C1161.93 56.5443 1159.93 55.4844 1158.07 53.0211C1153.74 47.2964 1149.07 41.8267 1144.58 36.2157C1143.65 35.0485 1142.92 33.7175 1141.92 32.1831Z" fill="white"/>
<path d="M1130.54 56.1991C1127.6 56.1991 1125.19 56.4317 1122.87 56.0805C1121.99 55.9468 1121.04 54.596 1120.58 53.5894C1118.41 48.7723 1119.65 49.2152 1113.85 49.1821C1111.64 49.1694 1109.42 49.2554 1107.2 49.1601C1105.5 49.0869 1104.68 49.8223 1104.11 51.3962C1102.24 56.5774 1100.2 57.4654 1094.3 55.7209C1094.51 54.9838 1094.67 54.2224 1094.96 53.5107C1098.81 43.8747 1102.72 34.2634 1106.5 24.5999C1107.26 22.6544 1108.28 21.8502 1110.42 21.918C1117.95 22.157 1116.18 20.8785 1119.07 27.8195C1122.52 36.0872 1125.87 44.3957 1129.25 52.6907C1129.64 53.6547 1129.97 54.6446 1130.54 56.1991ZM1111.94 29.4699C1110.38 34.1023 1108.99 38.2388 1107.47 42.7382C1110.73 42.8872 1113.5 43.0134 1116.79 43.1639C1115.11 38.4269 1113.6 34.1584 1111.94 29.4699Z" fill="white"/>
<path d="M1102.97 87.5562C1102.97 80.1968 1103.03 72.8366 1102.93 65.4784C1102.9 63.292 1103.66 62.5505 1105.85 62.5172C1114.36 62.3882 1114.36 62.3276 1114.36 70.7839C1114.36 83.7294 1114.3 96.6755 1114.42 109.62C1114.44 112.311 1113.6 113.151 1110.92 113.13C1102.97 113.07 1102.96 113.167 1102.96 105.112C1102.96 99.2604 1102.96 93.4083 1102.97 87.5562Z" fill="white"/>
<path d="M1218.61 39.0587C1218.61 34.3582 1218.68 29.6564 1218.58 24.9579C1218.54 22.8696 1219.12 21.8768 1221.42 21.9287C1226.74 22.0487 1232.07 22.0632 1237.39 21.928C1240.06 21.8599 1240.08 23.3908 1240.13 25.3328C1240.18 27.3856 1239.66 28.5276 1237.33 28.4212C1234.68 28.2999 1232 28.5199 1229.35 28.3687C1226.63 28.2135 1226.64 29.8778 1226.67 31.7898C1226.69 33.6202 1226.44 35.4216 1229.26 35.2689C1232.09 35.1156 1234.94 35.3053 1237.77 35.2328C1240.25 35.1695 1240.07 36.8324 1240.1 38.4713C1240.13 40.1593 1240.17 41.7426 1237.75 41.6838C1235 41.6171 1232.24 41.7566 1229.5 41.66C1227.48 41.5889 1226.66 42.2945 1226.64 44.4106C1226.6 49.7715 1226.51 49.7686 1231.9 49.7723C1233.94 49.7738 1235.98 49.798 1238.02 49.793C1240.37 49.7872 1240.11 51.4942 1240.08 52.9839C1240.05 54.4245 1240.48 56.2283 1238.08 56.2311C1232.23 56.2379 1226.37 56.2276 1220.52 56.2347C1218.73 56.2369 1218.61 55.0205 1218.61 53.6922C1218.62 48.8144 1218.62 43.9365 1218.61 39.0587Z" fill="white"/>
<path d="M1091.14 30.4508C1080.56 26.2127 1074.73 26.6524 1070.73 31.7434C1067.69 35.6154 1067.34 42.6218 1070.7 46.4356C1076.8 53.3518 1083.79 51.1815 1090.66 47.4876C1092.42 52.916 1091.35 55.2453 1086.23 56.4317C1077.8 58.3824 1069.97 57.2843 1064.16 50.2941C1055.52 39.8877 1061.56 24.3135 1075.05 21.5811C1079.41 20.6978 1083.66 21.0752 1087.94 22.1589C1090.48 22.8022 1091.84 24.0168 1091.37 26.7979C1091.19 27.8926 1091.22 29.0239 1091.14 30.4508Z" fill="white"/>
<path d="M1249.2 47.8037C1250.93 48.8945 1252.29 50.1543 1253.89 50.6525C1255.4 51.1217 1257.32 51.2171 1258.76 50.6802C1260.04 50.2038 1261.44 48.7765 1261.79 47.4979C1262.04 46.5554 1260.95 44.8672 1260 44.0648C1258.6 42.8954 1256.77 42.2584 1255.16 41.3305C1253.09 40.1366 1250.92 39.0647 1249.04 37.6123C1244.7 34.2557 1244.6 28.0354 1248.65 24.3574C1252.99 20.4118 1261.6 19.9232 1266.27 23.4322C1267.23 24.1541 1268.84 24.7812 1267.66 26.5459C1266.11 28.8652 1264.19 29.6147 1262.59 28.4675C1260.39 26.8965 1258.05 26.4244 1255.59 27.6836C1253.04 28.9885 1252.71 31.4542 1254.91 33.2607C1256.05 34.1984 1257.48 34.7907 1258.8 35.5121C1261.2 36.83 1263.83 37.8492 1265.98 39.4886C1271.57 43.7397 1270.91 51.7823 1264.86 55.3383C1260.03 58.1779 1251.58 57.8104 1247.65 54.59C1245.05 52.4592 1245 51.9481 1247.28 49.61C1247.94 48.9305 1248.66 48.3073 1249.2 47.8037Z" fill="white"/>
<path d="M1327.41 29.4239C1328.24 28.7986 1329.06 28.1734 1329.88 27.5496C1333.47 25.2789 1337.17 23.1528 1340.64 20.6998C1345.54 17.2318 1345.63 11.9103 1340.99 7.9937C1338.4 5.81138 1335.38 4.67801 1331.97 4.52797C1329.67 4.42701 1327.35 4.28091 1325.1 3.87673C1323.73 3.63215 1322.46 2.85606 1321.24 1.9023C1326.49 0.538477 1331.73 -0.682457 1336.81 1.45955C1343.53 4.28688 1349.34 8.46416 1353.59 14.5491C1356.78 19.1171 1356.05 22.5435 1351.17 25.309C1349.87 26.0427 1348.44 26.6394 1347 27.0034C1341.07 28.5008 1335.1 29.8822 1329.15 31.3112C1327.43 31.725 1326.39 31.5344 1327.41 29.4239Z" fill="white"/>
<path d="M1297.02 33.953C1298.12 31.3615 1299.29 28.7961 1300.31 26.1711C1301.3 23.6198 1302.22 21.032 1303.02 18.4169C1304.82 12.5936 1308.61 10.409 1314.38 12.2746C1317.14 13.1671 1319.79 14.4505 1322.39 15.7463C1323.27 16.1831 1324.13 17.084 1324.52 17.9813C1325.6 20.4773 1322.99 26.6668 1320.16 28.2294C1320.02 27.3921 1319.81 26.6591 1319.79 25.9205C1319.71 23.3934 1318.88 21.4235 1316.23 20.6514C1313.36 19.8171 1310.64 19.6499 1308.43 22.1958C1305.23 25.8713 1302.02 29.5301 1298.8 33.1808C1298.41 33.62 1297.92 33.9648 1297.47 34.3533C1297.32 34.2199 1297.17 34.0864 1297.02 33.953Z" fill="white"/>
<path d="M1307.35 56.0246C1303.99 53.0652 1303.34 49.7033 1303.65 46.0841C1303.69 45.5527 1304.61 44.6038 1304.98 44.6672C1308.64 45.2862 1310.95 43.0514 1313.45 41.0281C1314.79 39.9441 1316.44 39.2503 1317.9 38.3077C1318.85 37.6959 1319.75 36.9957 1320.61 36.2572C1321.58 35.421 1322.48 34.4977 1323.73 33.8555C1320.93 42.2269 1316.19 49.4726 1311.69 56.8467L1310.9 56.5809C1311.19 55.0145 1311.55 53.4564 1311.76 51.8793C1311.94 50.5805 1311.92 49.3882 1310.01 49.3302C1308.28 49.2774 1307.61 49.9189 1307.67 51.6486C1307.72 52.9842 1307.49 54.3294 1307.35 56.0246ZM1307.78 47.488C1307.93 47.7588 1308.08 48.0297 1308.23 48.3005L1313.09 45.3734L1312.63 44.6082C1311.01 45.5681 1309.4 46.528 1307.78 47.488Z" fill="white"/>
<path d="M276.805 83.0451H239.299C237.785 83.0451 236.56 81.8206 236.56 80.3098V72.2485C236.56 70.738 237.785 69.5132 239.299 69.5132H273.277C274.789 69.5132 276.016 68.2888 276.016 66.7779V59.1753C276.016 57.6647 274.789 56.44 273.277 56.44H239.299C237.785 56.44 236.56 55.2154 236.56 53.7047V47.4851C236.56 45.9744 237.785 44.7498 239.299 44.7498H275.97C277.482 44.7498 278.709 43.525 278.709 42.0145V34.4132C278.709 32.9025 277.482 31.6779 275.97 31.6779H220.823C219.311 31.6779 218.084 32.9025 218.084 34.4132V44.1862C214.613 36.4105 206.255 31.6779 193.017 31.6779H153.143C151.63 31.6779 150.404 32.9025 150.404 34.4132V52.4245C144.777 36.4003 127.272 30.2969 111.781 30.2969C96.2831 30.2969 78.7043 36.407 73.065 52.4505V34.4132C73.065 32.9025 71.8386 31.6779 70.326 31.6779H57.3291C55.8165 31.6779 54.5901 32.9025 54.5901 34.4132V53.2448C54.5901 54.7555 53.364 55.9801 51.8511 55.9801H21.2138C19.701 55.9801 18.4748 54.7555 18.4748 53.2448V34.4132C18.4748 32.9025 17.2484 31.6779 15.7357 31.6779H2.73899C1.22628 31.6779 0 32.9025 0 34.4132V93.3816C0 94.8924 1.22628 96.1169 2.73899 96.1169H15.7357C17.2484 96.1169 18.4748 94.8924 18.4748 93.3816V72.7086C18.4748 71.1981 19.701 69.9733 21.2138 69.9733H51.8511C53.364 69.9733 54.5901 71.1981 54.5901 72.7086V93.3816C54.5901 94.8924 55.8165 96.1169 57.3291 96.1169H70.326C71.8386 96.1169 73.065 94.8924 73.065 93.3816V75.3056C78.7043 91.2971 96.2831 97.4062 111.781 97.4062C127.272 97.4062 144.777 91.3036 150.404 75.3314V93.3816C150.404 94.8924 151.63 96.1169 153.143 96.1169H166.14C167.652 96.1169 168.879 94.8924 168.879 93.3816V78.7847C168.879 77.2738 170.105 76.0494 171.618 76.0494H191.253C204.831 76.0494 214.291 71.9686 218.084 63.2671V93.3816C218.084 94.8924 219.311 96.1169 220.823 96.1169H276.805C278.318 96.1169 279.544 94.8924 279.544 93.3816V85.7804C279.544 84.2698 278.318 83.0451 276.805 83.0451ZM111.781 84.4257C97.9486 84.4257 90.0577 76.6011 90.0577 63.898C90.0577 51.1932 97.9486 43.2773 111.781 43.2773C125.522 43.2773 133.507 51.1932 133.507 63.898C133.507 76.6011 125.522 84.4257 111.781 84.4257ZM190.418 63.0689H171.618C170.105 63.0689 168.879 61.8443 168.879 60.3336V47.4851C168.879 45.9744 170.105 44.7498 171.618 44.7498H190.418C198.867 44.7498 201.093 48.6154 201.093 53.4944C201.093 58.2816 198.959 63.0689 190.418 63.0689Z" fill="white"/>
<path d="M416.348 26.9237C415.295 25.8179 413.808 25.3279 411.889 25.4508C410.901 25.5737 406.817 29.961 399.633 38.6157C391.588 48.2519 385.675 54.328 381.901 56.8437L376.516 37.3255C376.392 36.7742 376.332 36.0684 376.332 35.2083C376.332 34.4726 376.408 33.2289 376.562 31.4803C376.717 29.7317 376.796 28.4282 376.796 27.568C376.796 25.1735 376.299 23.3021 375.309 21.9521L369.74 21.2148C367.571 23.7936 366.489 28.2438 366.489 34.5641C366.489 37.3506 366.877 42.064 367.653 48.6932C367.01 48.6152 366.343 48.5401 365.648 48.4686C360.013 48.0401 354.38 47.5786 348.75 47.0871C349.243 45.6757 350.388 43.0684 352.185 39.2625C353.669 36.0709 354.412 34.1379 354.412 33.4622C354.412 31.4364 353.824 29.6877 352.649 28.2148C351.224 26.4347 349.274 25.5446 346.8 25.5446C343.456 25.5446 340.98 27.0491 339.372 30.0564C338.382 31.9593 337.482 35.2109 336.68 39.814C335.811 44.6013 335.009 47.7629 334.264 49.2973C332.415 50.5813 328.965 51.1328 323.92 50.956C323.79 50.9628 321.884 50.9935 318.203 51.046C315.232 51.1074 313.251 50.986 312.261 50.6773C312.508 48.6529 312.785 46.6586 313.097 44.6942C313.468 41.8712 313.653 39.5382 313.653 37.6966C313.653 31.3765 311.456 28.2148 307.063 28.2148C305.949 28.2148 304.74 28.3991 303.442 28.7677C296.386 44.5414 292.856 62.8609 292.856 83.7276C292.732 85.8763 292.672 87.4106 292.672 88.3307C292.672 95.574 294.62 99.1941 298.521 99.1941C302.481 99.1941 304.74 96.0937 305.299 89.8965C305.545 84.1875 305.823 78.4803 306.133 72.7726C307.125 66.6366 310.156 63.5668 315.232 63.5668C315.418 63.5668 316.625 63.613 318.853 63.7045C321.082 63.7959 322.938 63.8422 324.422 63.8422C326.652 63.8422 328.447 63.7509 329.809 63.5667C329.498 67.8011 328.817 73.264 327.766 79.9529C326.898 86.0918 326.465 89.3436 326.465 89.712C326.465 91.4308 327.116 93.1792 328.416 94.9593C330.024 97.2295 332.161 98.3653 334.823 98.3653C335.997 98.3653 337.39 98.0582 339.001 97.4455C341.289 96.5852 342.436 95.4811 342.436 94.1311V71.7598C342.436 70.1028 342.931 68.1398 343.922 65.8682C344.663 64.2724 345.438 62.7081 346.243 61.172H365.832C367.581 61.172 369.718 60.6443 372.24 59.5914C373.554 62.5421 374.239 64.698 374.288 66.0498C374.349 68.936 374.131 73.2004 373.638 78.8465C373.08 84.7381 372.802 88.6368 372.802 90.5384C372.802 95.1415 373.825 97.4428 375.868 97.4428C378.713 97.4428 380.415 96.8286 380.973 95.6014C381.034 91.1828 381.777 85.4137 383.201 78.2935C384.81 70.5599 386.325 66.1116 387.751 64.9442C391.279 62.1825 394.805 59.391 398.333 56.5666C403.287 52.2722 407.217 48.0377 410.127 43.8631C413.902 38.3385 415.976 32.6925 416.348 26.9237Z" fill="white"/>
<path d="M648.172 62.0331L635.265 61.9719L637.234 39.1498C637.25 35.651 637.075 33.4115 636.71 32.4268C635.916 30.153 633.971 29.0079 630.872 28.9932C629.017 28.9844 627.005 29.2505 624.833 29.7931C622.48 30.4578 620.71 31.278 619.531 32.2539C607.976 42.3253 596.377 52.3965 584.755 62.4687C578.397 68.2012 573.074 73.2043 568.774 77.4889C567.871 75.2831 566.164 73.0361 563.642 70.7467C560.743 68.1561 556.58 65.3431 551.153 62.3097C547.506 60.3912 543.861 58.4395 540.222 56.4577C543.315 56.1668 546.449 55.8745 549.604 55.5824C556.169 54.6919 561.468 53.3685 565.498 51.6061C571.082 49.1798 573.883 46.0628 573.903 42.2554C573.927 36.9167 571.529 32.7622 566.719 29.7934C562.834 27.382 558.471 26.164 553.647 26.1411C549.622 26.1219 545.286 26.7157 540.635 27.9209C537.845 28.6433 534.469 29.7645 530.499 31.2786C527.278 32.492 525.388 33.0957 524.831 33.0932C524.332 33.0909 522.492 32.8678 519.309 32.4226C516.123 31.979 514.344 31.7547 513.972 31.7529C511.618 31.7418 509.885 32.3479 508.766 33.5683C507.765 34.9766 506.805 36.4134 505.866 37.882C505.368 38.5553 504.128 39.2552 502.139 39.9815C501.734 40.1327 501.361 40.272 501.014 40.4021C498.964 35.42 494.828 31.8149 488.603 29.5934C483.404 27.6905 476.038 26.739 466.507 26.739C458.58 26.739 453.445 27.0146 451.093 27.5676C447.628 28.4277 441.468 31.1277 432.616 35.6694C432.309 34.8093 432.154 33.705 432.154 32.3549V31.802C432.154 29.9005 431.566 28.519 430.39 27.659C429.523 27.4747 428.749 27.3833 428.067 27.3833C425.593 27.3833 423.796 28.519 422.683 30.7891C422.126 31.8949 421.54 34.2579 420.921 37.8781C420.302 41.0696 419.527 43.2797 418.598 44.507C417.484 44.1999 416.465 44.0471 415.536 44.0471C413.675 44.0471 412.408 44.5684 411.727 45.6113C412.408 47.5143 412.749 49.6615 412.749 52.056C412.749 56.1689 411.232 63.1489 408.201 72.9991C405.166 82.8512 403.648 90.0782 403.648 94.6813C403.648 96.8283 403.93 98.2713 404.485 99.0071C405.228 99.9287 406.838 100.389 409.315 100.389C411.789 100.389 414.793 99.6829 418.322 98.2713C424.757 95.6312 429.799 93.7294 433.452 92.5624C445.091 88.881 451.093 86.9794 451.464 86.8551C465.144 82.0077 476.221 76.8519 484.705 71.3884C494.342 65.2651 500.072 59.1415 501.889 53.0183C502.325 53.1563 502.607 53.2617 502.727 53.3338C500.529 60.6281 497.673 68.6834 494.163 77.5062C491.03 85.5317 489.023 91.168 488.139 94.4171C486.688 99.9934 486.07 105.975 486.288 112.359C487.582 113.593 488.63 114.212 489.436 114.216C492.346 114.23 494.797 112.217 496.796 108.175C498.237 105.236 499.4 101.375 500.291 96.5918C500.609 94.3234 500.932 92.0235 501.248 89.692C502.205 84.3559 503.123 80.6787 503.998 78.6569C509.567 66.1625 513.632 57.1601 516.201 51.6492C517.2 49.3838 522.227 47.0132 531.273 44.5388C539.578 42.3081 546.113 41.2034 550.881 41.2261C553.355 41.2379 554.775 41.7674 555.144 42.8121C553.651 44.4008 550.95 45.9538 547.044 47.4682C545.242 48.1354 542.609 48.9815 539.141 50.0079C532.938 51.76 528.85 53.0593 526.865 53.9083C519.667 57.1287 516.061 60.9159 516.04 65.2731C516.033 66.6234 517.885 67.8296 521.59 68.8902C524.433 69.6394 526.569 70.018 527.993 70.0245L554.883 76.9661C555.564 77.1532 557.412 78.9422 560.429 82.3311C561.093 83.0783 561.696 83.7381 562.246 84.3208C557.666 89.4235 555.367 92.9289 555.354 94.8272C555.331 99.4899 557.825 101.836 562.837 101.861C566.241 101.876 569.316 100.233 572.058 96.9321C574.485 93.7538 576.914 90.5716 579.346 87.3917C579.777 86.9041 581.21 85.0392 583.637 81.7964C585.695 79.0443 586.878 77.6386 587.191 77.5788C591.155 76.432 596.859 75.3543 604.291 74.3453C610.236 73.5762 613.854 73.1935 615.157 73.1997C615.59 73.2017 615.788 73.4034 615.756 73.8021C615.725 74.1974 615.769 74.4539 615.89 74.5794C615.866 74.6776 615.722 76.135 615.453 78.9553C615.157 82.0537 615.01 84.8315 614.999 87.2852C614.948 97.1659 617.026 102.118 621.234 102.138C624.083 102.151 626.508 99.6455 628.515 94.6214C629.955 91.0698 631.126 86.3193 632.021 80.3689C632.406 77.4865 632.791 74.6053 633.177 71.7209C633.916 71.9088 635.251 71.9151 637.168 71.7398C639.518 71.5067 640.636 71.3881 640.515 71.3871C641.317 71.3911 642.308 71.4269 643.482 71.4945C644.655 71.5613 645.433 71.5952 645.801 71.5967C647.408 71.6044 648.561 71.1496 649.245 70.2317C649.93 69.3147 650.591 67.232 651.227 63.982C650.487 62.6284 649.472 61.9791 648.172 62.0331ZM458.985 72.217C440.663 77.6802 426.8 81.7318 417.391 84.3694L421.846 66.6942C423.707 59.6365 425.749 53.9289 427.974 49.5702C428.349 48.8329 429.893 47.6987 432.616 46.1643C434.97 44.9986 437.289 43.8328 439.58 42.6655C446.39 39.1668 453.969 37.418 462.327 37.418C467.588 37.418 473.066 38.3381 478.763 40.1797C486.866 42.8198 490.922 46.5644 490.922 51.4118C490.922 58.532 480.276 65.4668 458.985 72.217ZM598.395 64.8353C600.758 62.0234 603.122 59.1818 605.489 56.3071C608.664 52.6389 611.4 49.9834 613.699 48.3371C614.869 49.4469 615.601 51.4447 615.901 54.3307C616.134 56.6648 616.372 58.9975 616.606 61.3318L598.395 64.8353Z" fill="white"/>
<path d="M715.991 34.9137C720.209 33.5222 722.318 31.875 722.326 29.972C722.335 28.132 720.704 26.927 717.428 26.3585C713.712 25.9722 709.973 25.5574 706.195 25.1094L650.73 33.1306C650.294 33.0686 649.554 32.9723 648.5 32.8444C647.454 32.7164 646.769 32.6517 646.461 32.6503C644.107 32.6391 642.465 32.907 641.54 33.4555C640.17 34.3092 639.482 36.0546 639.469 38.6932C639.447 43.3576 640.738 45.3895 643.342 44.7876L659.407 44.0354C660.391 44.5314 660.884 45.3925 660.877 46.6197C660.866 48.9525 660.254 53.7371 659.046 60.9733C657.955 67.7812 657.165 71.8892 656.663 73.2984C655.846 75.7503 654.901 79.4279 653.823 84.333C652.496 90.2183 651.827 94.4494 651.815 97.0266C651.789 102.49 653.476 105.23 656.882 105.246C657.625 105.25 658.613 105.07 659.854 104.707C661.527 104.224 662.367 103.583 662.371 102.786L662.701 91.5554C662.714 88.6708 664.301 81.0683 667.456 68.7466C669.09 62.7396 670.701 56.7326 672.277 50.7256C672.403 50.2347 672.779 49.0406 673.411 47.1407C673.911 45.6088 674.196 44.3514 674.262 43.3702C686.782 40.0537 698.274 37.8068 708.738 36.6293C710.968 36.3942 713.389 35.8229 715.991 34.9137Z" fill="white"/>
<path d="M735.663 28.8521C734.554 27.8654 733.441 27.3686 732.328 27.3634C730.78 27.356 729.263 27.9317 727.773 29.0904C724.818 37.5454 721.246 46.5968 717.052 56.2446C712.862 65.8913 710.29 72.1242 709.352 74.9427C707.342 80.7022 706.324 86.2221 706.297 91.4996C706.271 97.3292 708.298 100.255 712.383 100.274C713.433 100.279 714.675 99.7626 716.106 98.7266C718.018 87.6877 719.788 79.8712 721.422 75.2757C724.55 67.7416 727.678 60.2075 730.815 52.6734C734.324 43.7295 735.942 35.7896 735.663 28.8521Z" fill="white"/>
<path d="M870.826 25.2558C870.34 23.7207 869.17 22.9464 867.309 22.9376C863.042 22.9172 858.528 27.1933 853.784 35.7626C852.723 37.7835 850.47 42.7761 847.026 50.7372C841.641 63.3552 837.14 72.7545 833.521 78.9362C831.797 77.3324 830.528 76.1605 829.732 75.4195C827.968 56.5086 823.735 41.6046 817.043 30.7093C816.548 30.8298 814.903 31.0662 812.116 31.4216C810.199 31.6582 808.989 32.0211 808.495 32.5102C804.946 36.1749 801.144 41.6815 797.087 49.0269C795.359 52.1271 793.763 55.0504 792.293 57.8025C791.729 48.2224 788.437 40.2371 782.398 33.8594C775.87 26.9551 767.686 23.4774 757.848 23.4306C752.399 23.4048 747.244 27.5233 742.372 35.7866C738.629 42.0291 735.342 50.084 732.507 59.9512C730.237 67.9822 729.097 73.5614 729.086 76.6903C729.046 84.4864 731.276 90.7257 735.77 95.4118C740.514 100.282 747.093 102.739 755.512 102.779C765.738 102.828 774.391 98.5499 781.476 89.9538C781.745 90.8052 782.106 91.6254 782.577 92.4106C784.053 94.9353 786.176 96.2023 788.966 96.2154C790.078 96.221 791.705 95.5245 793.849 94.1213C795.993 92.7219 797.218 91.3762 797.538 90.0891C802.134 73.9084 806.339 61.8675 810.152 53.968C811.494 57.8417 812.838 61.7139 814.18 65.5863C816.992 73.2732 819.744 79.3922 822.452 83.9467C826.195 90.2868 829.77 93.464 833.174 93.4801C837.01 93.4983 842.14 88.3993 848.567 78.1793C853.742 69.9174 858.869 59.9697 863.936 48.3316C868.629 37.6149 870.987 30.9656 870.998 28.3868C871.005 26.6697 870.948 25.625 870.826 25.2558ZM776.309 64.5794C775.83 72.9236 773.637 79.6967 769.715 84.8939C765.539 90.3369 760.108 93.0418 753.423 93.0097C749.15 92.9896 746.105 90.3663 744.268 85.1415C743.295 82.1894 742.816 79.1811 742.829 76.1111C742.844 73.4109 743.603 68.8118 745.121 62.3126C746.956 54.4053 749.057 47.9091 751.439 42.8256C754.625 36.2748 757.921 33.006 761.33 33.0221C765.473 33.0418 769.2 37.387 772.5 46.0561C775.306 53.5585 776.577 59.732 776.309 64.5794Z" fill="white"/>
</svg>
